HIERARCHY
ROOT hips
{
  OFFSET 4.514983404067499e-9 10.105397940993303 1.318478203070619
  CHANNELS 6 Xposition Yposition Zposition Yrotation Xrotation Zrotation
  JOINT spine
  {
    OFFSET -3.891297943093837e-9 0.5743022203102706 0
    CHANNELS 3 Yrotation Xrotation Zrotation
    JOINT chest
    {
      OFFSET 0 1.2550312016247926 0
      CHANNELS 3 Yrotation Xrotation Zrotation
      JOINT upperChest
      {
        OFFSET 0 1.2059856050120283 0
        CHANNELS 3 Yrotation Xrotation Zrotation
        JOINT neck
        {
          OFFSET 0 1.5290392449770056 0
          CHANNELS 3 Yrotation Xrotation Zrotation
          JOINT head
          {
            OFFSET 0 0.8186276690878121 0
            CHANNELS 3 Yrotation Xrotation Zrotation
            JOINT leftEye
            {
              OFFSET 0.4540883942785781 -0.2684596961258452 0.6133497327236779
              CHANNELS 3 Yrotation Xrotation Zrotation
              End Site
              {
                OFFSET 0.4540883942785781 -0.2684596961258452 0.6133497327236779
              }
            }
            JOINT rightEye
            {
              OFFSET -0.4540889229417456 -0.26846010916843954 0.6133525398671689
              CHANNELS 3 Yrotation Xrotation Zrotation
              End Site
              {
                OFFSET -0.4540889229417456 -0.26846010916843954 0.6133525398671689
              }
            }
          }
        }
        JOINT leftShoulder
        {
          OFFSET 1.1700010731725468 -0.4176065950681176 0
          CHANNELS 3 Yrotation Xrotation Zrotation
          JOINT leftUpperArm
          {
            OFFSET 1.1803911524554955 0 0
            CHANNELS 3 Yrotation Xrotation Zrotation
            JOINT leftLowerArm
            {
              OFFSET 2.4406171707858904 0 0
              CHANNELS 3 Yrotation Xrotation Zrotation
              JOINT leftHand
              {
                OFFSET 2.3832177068873874 0 0
                CHANNELS 3 Yrotation Xrotation Zrotation
                JOINT leftIndexProximal
                {
                  OFFSET 0.7310175006235151 0.08192774217833776 0.20404791572985242
                  CHANNELS 3 Yrotation Xrotation Zrotation
                  JOINT leftIndexIntermediate
                  {
                    OFFSET 0.3688845439429529 -0.010662034455094949 -0.014226011560394963
                    CHANNELS 3 Yrotation Xrotation Zrotation
                    JOINT leftIndexDistal
                    {
                      OFFSET 0.2271119941018298 -0.007897656478952575 -0.007580683836364496
                      CHANNELS 3 Yrotation Xrotation Zrotation
                      End Site
                      {
                        OFFSET 0.2271119941018298 -0.007897656478952575 -0.007580683836364496
                      }
                    }
                  }
                }
                JOINT leftLittleProximal
                {
                  OFFSET 0.678269929308182 0.08192620621401336 -0.323876516389586
                  CHANNELS 3 Yrotation Xrotation Zrotation
                  JOINT leftLittleIntermediate
                  {
                    OFFSET 0.34904545821382604 -0.0000017106393073174075 8.629360392919949e-9
                    CHANNELS 3 Yrotation Xrotation Zrotation
                    JOINT leftLittleDistal
                    {
                      OFFSET 0.2011060672849896 0.0031247840072243793 0.0038660318003989197
                      CHANNELS 3 Yrotation Xrotation Zrotation
                      End Site
                      {
                        OFFSET 0.2011060672849896 0.0031247840072243793 0.0038660318003989197
                      }
                    }
                  }
                }
                JOINT leftMiddleProximal
                {
                  OFFSET 0.7368181082522638 0.0819260272939426 0.02272335773438093
                  CHANNELS 3 Yrotation Xrotation Zrotation
                  JOINT leftMiddleIntermediate
                  {
                    OFFSET 0.41136739116025356 -0.0000015892429323649537 5.27860346960507e-8
                    CHANNELS 3 Yrotation Xrotation Zrotation
                    JOINT leftMiddleDistal
                    {
                      OFFSET 0.25378150303820757 -0.0000015332469289752737 1.3442958385345705e-8
                      CHANNELS 3 Yrotation Xrotation Zrotation
                      End Site
                      {
                        OFFSET 0.25378150303820757 -0.0000015332469289752737 1.3442958385345705e-8
                      }
                    }
                  }
                }
                JOINT leftRingProximal
                {
                  OFFSET 0.7284256823094712 0.08192611199801392 -0.1508405069143483
                  CHANNELS 3 Yrotation Xrotation Zrotation
                  JOINT leftRingIntermediate
                  {
                    OFFSET 0.381593741461262 -0.0000016975471202052006 6.592486757883709e-8
                    CHANNELS 3 Yrotation Xrotation Zrotation
                    JOINT leftRingDistal
                    {
                      OFFSET 0.22014536669820362 -0.0027420652959939673 -0.005037497035641991
                      CHANNELS 3 Yrotation Xrotation Zrotation
                      End Site
                      {
                        OFFSET 0.22014536669820362 -0.0027420652959939673 -0.005037497035641991
                      }
                    }
                  }
                }
                JOINT leftThumbProximal
                {
                  OFFSET 0.10842212958334652 -0.16573713992498873 -0.07779936144556289
                  CHANNELS 3 Yrotation Xrotation Zrotation
                  JOINT leftThumbIntermediate
                  {
                    OFFSET 0.40720553822379024 -0.01751267955631075 0.31852684427382305
                    CHANNELS 3 Yrotation Xrotation Zrotation
                    JOINT leftThumbDistal
                    {
                      OFFSET 0.23412859218032667 -0.01859690713588802 0.2146635043319005
                      CHANNELS 3 Yrotation Xrotation Zrotation
                      End Site
                      {
                        OFFSET 0.23412859218032667 -0.01859690713588802 0.2146635043319005
                      }
                    }
                  }
                }
              }
            }
          }
        }
        JOINT rightShoulder
        {
          OFFSET -1.1700037144859516 -0.41760703856471126 0
          CHANNELS 3 Yrotation Xrotation Zrotation
          JOINT rightUpperArm
          {
            OFFSET -1.1803910289368023 0 0
            CHANNELS 3 Yrotation Xrotation Zrotation
            JOINT rightLowerArm
            {
              OFFSET -2.440617418222133 0 0
              CHANNELS 3 Yrotation Xrotation Zrotation
              JOINT rightHand
              {
                OFFSET -2.3832181162662343 0 0
                CHANNELS 3 Yrotation Xrotation Zrotation
                JOINT rightIndexProximal
                {
                  OFFSET -0.7310168852843362 0.08192787643494381 0.20404785424302163
                  CHANNELS 3 Yrotation Xrotation Zrotation
                  JOINT rightIndexIntermediate
                  {
                    OFFSET -0.3688846010723953 -0.01066191355993129 -0.014226020535245201
                    CHANNELS 3 Yrotation Xrotation Zrotation
                    JOINT rightIndexDistal
                    {
                      OFFSET -0.22711216276130997 -0.007898902439410271 -0.007580718044857868
                      CHANNELS 3 Yrotation Xrotation Zrotation
                      End Site
                      {
                        OFFSET -0.22711216276130997 -0.007898902439410271 -0.007580718044857868
                      }
                    }
                  }
                }
                JOINT rightLittleProximal
                {
                  OFFSET -0.6782685897119165 0.08192501740206293 -0.3238766118101876
                  CHANNELS 3 Yrotation Xrotation Zrotation
                  JOINT rightLittleIntermediate
                  {
                    OFFSET -0.34904682243945895 -2.664019085329983e-7 3.792712677253007e-8
                    CHANNELS 3 Yrotation Xrotation Zrotation
                    JOINT rightLittleDistal
                    {
                      OFFSET -0.20110609302945537 0.0031260842677420797 0.0038661724369087186
                      CHANNELS 3 Yrotation Xrotation Zrotation
                      End Site
                      {
                        OFFSET -0.20110609302945537 0.0031260842677420797 0.0038661724369087186
                      }
                    }
                  }
                }
                JOINT rightMiddleProximal
                {
                  OFFSET -0.7368168209984411 0.08192485183145659 0.022723294831187846
                  CHANNELS 3 Yrotation Xrotation Zrotation
                  JOINT rightMiddleIntermediate
                  {
                    OFFSET -0.4113687575187084 -9.03141548214137e-8 4.759541079313312e-8
                    CHANNELS 3 Yrotation Xrotation Zrotation
                    JOINT rightMiddleDistal
                    {
                      OFFSET -0.2537822083525749 -9.554208624251714e-8 -1.6364827826187422e-9
                      CHANNELS 3 Yrotation Xrotation Zrotation
                      End Site
                      {
                        OFFSET -0.2537822083525749 -9.554208624251714e-8 -1.6364827826187422e-9
                      }
                    }
                  }
                }
                JOINT rightRingProximal
                {
                  OFFSET -0.7284243957721679 0.08192492753028224 -0.15084062217729294
                  CHANNELS 3 Yrotation Xrotation Zrotation
                  JOINT rightRingIntermediate
                  {
                    OFFSET -0.381595106800805 -2.5662436442530634e-7 2.929475539925619e-8
                    CHANNELS 3 Yrotation Xrotation Zrotation
                    JOINT rightRingDistal
                    {
                      OFFSET -0.22014544912608125 -0.002738002524970362 -0.0050375115645966
                      CHANNELS 3 Yrotation Xrotation Zrotation
                      End Site
                      {
                        OFFSET -0.22014544912608125 -0.002738002524970362 -0.0050375115645966
                      }
                    }
                  }
                }
                JOINT rightThumbProximal
                {
                  OFFSET -0.10842026863657162 -0.16573778435706465 -0.07779917642461898
                  CHANNELS 3 Yrotation Xrotation Zrotation
                  JOINT rightThumbIntermediate
                  {
                    OFFSET -0.40720600760521597 -0.017512298079938038 0.3185267362029824
                    CHANNELS 3 Yrotation Xrotation Zrotation
                    JOINT rightThumbDistal
                    {
                      OFFSET -0.2341289751103648 -0.018594162598156494 0.21466399510514025
                      CHANNELS 3 Yrotation Xrotation Zrotation
                      End Site
                      {
                        OFFSET -0.2341289751103648 -0.018594162598156494 0.21466399510514025
                      }
                    }
                  }
                }
              }
            }
          }
        }
      }
    }
  }
  JOINT leftUpperLeg
  {
    OFFSET -0.8565189721517369 0.4427277044191169 0
    CHANNELS 3 Yrotation Xrotation Zrotation
    JOINT leftLowerLeg
    {
      OFFSET 0 -3.918486704769693 0
      CHANNELS 3 Yrotation Xrotation Zrotation
      JOINT leftFoot
      {
        OFFSET 6.174701361744139e-7 -0.055233446196002234 4.612027801972084
        CHANNELS 3 Yrotation Xrotation Zrotation
        JOINT leftToes
        {
          OFFSET -3.4372540951010944e-7 -0.705284859504459 1.2256624571888697
          CHANNELS 3 Yrotation Xrotation Zrotation
          End Site
          {
            OFFSET -3.4372540951010944e-7 -0.705284859504459 1.2256624571888697
          }
        }
      }
    }
  }
  JOINT rightUpperLeg
  {
    OFFSET 0.8565189732197466 0.44272769569168136 0
    CHANNELS 3 Yrotation Xrotation Zrotation
    JOINT rightLowerLeg
    {
      OFFSET 0 -3.918486692649319 0
      CHANNELS 3 Yrotation Xrotation Zrotation
      JOINT rightFoot
      {
        OFFSET 6.995136552362391e-7 -0.05523244834012664 4.612028499942008
        CHANNELS 3 Yrotation Xrotation Zrotation
        JOINT rightToes
        {
          OFFSET -4.2566694985479714e-7 -0.7052846587611067 1.22566236096697
          CHANNELS 3 Yrotation Xrotation Zrotation
          End Site
          {
            OFFSET -4.2566694985479714e-7 -0.7052846587611067 1.22566236096697
          }
        }
      }
    }
  }
}
MOTION
Frames: 4
Frame Time: 0.03333333333333333
-0.005162834655493498 -0.3058507455587325 0.06936807185411453 -2.5689185010389832 -2.040750910310696 0.1679292868281037 -0.25314981161896033 -0.4512463951524572 -1.4563582148107728 -2.3256232768808225 1.162349432426233 -1.1761450638494424 0 0 0 0.06697945445069267 -9.630133660711953 1.900613231816613 3.098729374117237 -4.54271593035712 2.785152759151228 0 0 0 0 0 0 7.496985702297923 0.3399174570937838 -11.150955550156922 -54.70572491733029 -18.528883058442155 -60.482624924081215 -94.570312063716 1.9952654426206076 -0.5580975457429435 5.564054305597624 6.68456177859206 41.28338716769213 0.24047262019438148 0.00468749996891801 -2.2355340063416134 0.21577113552436653 0.003764757417785085 -2.005929396446848 0.10790723586173083 0.0009531390582480224 -1.0029768555317367 4.298543172283549 0.14672536364394947 -1.7721726692864115 -3.8447780231301802 -0.010707010274819838 -2.463412719869474 0.1079110578260965 0.0009493670087383736 -1.002972373906966 0.23875225274764114 0.004616650096258808 -2.219532030773141 0.21749040906798744 0.003820256873729654 -2.0219283689390766 0.10791808143600161 0.00096000280639288 -1.00296927945176 0.24047262019438148 0.0046874945494563705 -2.2355340063416134 0.21577113552436653 0.003764757417785085 -2.005929396446848 0.10790722252154107 0.0009531389540276066 -1.0029768555317367 4.112043522357919 3.0220718594890847 0.4097275489301798 9.839355462606393 -4.416172357950229 10.247938102924957 2.9275942186021884 -4.775313651965646 6.911059810983493 0.8595820808765815 0.877543075718126 11.388779631673888 33.892085907050415 -18.73859182843033 58.54384768113453 92.37667610472563 1.9694438266464807 0.5105323676003968 26.494194956885316 -4.801639869143139 -11.213237409300596 0.6477475879786665 0.033744184689328445 -5.965325340902541 0.000007851605426192122 -4.795658668705656e-7 0.000007014714673078499 -0.000005219881561007994 0.00001022242284396857 0.000024231932248931946 0.6477447066762576 0.03374377781275459 -5.965328737504867 0.000004548144748283911 -0.00001426066839371834 0.00002133576414175714 -0.0000021292654343827935 0.000008796708725566461 0.000023358729637353377 0.6477475346212145 0.03374421803986728 -5.965325340902541 0.000007849543001870036 -4.795658668705656e-7 0.000007014741542404448 9.048667890988725e-7 0.0000073709937929423595 0.000018319972167013275 0.6477475346212145 0.03374416801405902 -5.965325765477835 -0.000003994125302319407 -9.461497781977701e-7 0.00005169884991991296 0.0000025989410484158792 0.0000035421836469681713 0.000009356425282854038 -12.395358302014294 -15.444136721161707 -14.007235692946635 -8.804439035154592 6.294279386689108 0.5406438443658288 0.010019206152332795 -0.42494515558741214 -1.4121119426445774 8.625056061778793 -7.691451267616807 3.564769004468584 11.011872265768277 23.678123114154936 7.1905112240642435 7.653989421477837 -12.32734255904843 -10.468560477406939 0.00000919100468476 -0.000032449032973791605 -1.1872704020432015e-7 -8.406142489167527 -7.43111547601797 -6.90293097780663 -9.156452146296852 20.786749694145616 -7.4560393639257585 -2.028343753000333 -10.137491990286632 12.736629023227287 -0.000007653138814068802 -0.000027552083663589023 -0.0000033165179489864637
-0.006002689246088266 -0.3062055124044356 0.061196599155664444 -2.532262371750387 -1.8984078130702515 0.10638116124150049 -0.26287948490434104 -0.5247965985340228 -1.4795511191917168 -2.3324256687441194 0.9541193910316502 -1.0148783744172032 0 0 0 0.04620071193832188 -9.802081025385332 1.9373684573130119 3.0594280803028457 -4.76493337688642 2.835248149832918 0 0 0 0 0 0 7.925716522279414 0.33130201282489014 -11.457557008354925 -52.50875988179278 -18.892842127948725 -61.00116426129723 -94.36623136616825 1.992920627431023 -0.5535930625118687 -7.773623720243995 -5.146189877660418 33.90072724053561 0.24047262019438148 0.00468749996891801 -2.2355340063416134 0.21577113552436653 0.003764757417785085 -2.005929396446848 0.10790723586173083 0.0009531390582480224 -1.0029768555317367 4.298543172283549 0.14672536364394947 -1.7721726692864115 -3.8447780231301802 -0.010707010274819838 -2.463412719869474 0.1079110578260965 0.0009493670087383736 -1.002972373906966 0.23875225274764114 0.004616650096258808 -2.219532030773141 0.21749040906798744 0.003820256873729654 -2.0219283689390766 0.10791808143600161 0.00096000280639288 -1.00296927945176 0.24047262019438148 0.0046874945494563705 -2.2355340063416134 0.21577113552436653 0.003764757417785085 -2.005929396446848 0.10790722252154107 0.0009531389540276066 -1.0029768555317367 4.112043522357919 3.0220718594890847 0.4097275489301798 9.839355462606393 -4.416172357950229 10.247938102924957 2.9275942186021884 -4.775313651965646 6.911059810983493 1.0067627769683665 0.8713203154973023 11.180811916934013 32.0344064820483 -18.705632142761615 59.09058771347379 92.75357351560082 1.9742369753551698 0.5186391124733666 27.668600447186694 -8.246361267979378 -12.404881658784564 0.6354123769818198 0.03246737932840983 -5.851424968905429 0.000007851605426192122 -4.795658668705656e-7 0.000007014714673078499 -0.000005219881561007994 0.00001022242284396857 0.000024231932248931946 0.6354123769818198 0.03246761611723255 -5.851424968905429 0.000004548144748283911 -0.00001426066839371834 0.00002133576414175714 -0.0000021292654343827935 0.000008796708725566461 0.000023358729637353377 0.6354124303393986 0.03246741267894824 -5.851424968905429 0.000007849543001870036 -4.795658668705656e-7 0.000007014741542404448 9.048667890988725e-7 0.0000073709937929423595 0.000018319972167013275 0.6354124303393986 0.032467362653140625 -5.851424544242774 -0.000003994125302319407 -9.461497781977701e-7 0.00005169884991991296 0.0000025989410484158792 0.0000035421836469681713 0.000009356425282854038 -11.881458671211492 -15.348767796801525 -13.92148427333552 -8.804439035154592 6.294279386689108 0.5406438443658288 0.010019206152332795 -0.42494515558741214 -1.4121119426445774 8.529171591906483 -7.943254824522161 3.557942979799159 10.928700911991328 23.75991119455706 7.2215375475529955 7.8428941080116195 -12.288100233170967 -10.491381738333542 0.00000919100468476 -0.000032449032973791605 -1.1872704020432015e-7 -8.197433948883821 -7.581736441515869 -6.758974367539167 -9.160237706781611 20.77605447583409 -7.495355004409163 -2.232417495394409 -10.072178615737418 12.753283064718723 -0.000007653138814068802 -0.000027552083663589023 -0.0000033165179489864637
-0.005762062035501003 -0.30613780152797077 0.05803553760051727 -2.444264723112075 -1.889090401539975 0.09477104518284978 -0.2903157815580245 -0.5463131680998117 -1.4914934649026381 -2.4524460172328664 0.931829998584538 -0.9865100501976002 0 0 0 0.05460149940113822 -9.784212420805162 1.9241821944573578 3.0677273340213667 -4.849901460209641 2.9129897700375977 0 0 0 0 0 0 8.116093657755696 0.3280931048092565 -11.579204406152305 -50.70443220976673 -19.361529329565016 -61.341014928857575 -94.17568845614862 1.9908812239849214 -0.5494417088701882 -11.30599231089963 -7.493318044432005 30.829770288801424 0.24047262019438148 0.00468749996891801 -2.2355340063416134 0.21577113552436653 0.003764757417785085 -2.005929396446848 0.10790723586173083 0.0009531390582480224 -1.0029768555317367 4.298543172283549 0.14672536364394947 -1.7721726692864115 -3.8447780231301802 -0.010707010274819838 -2.463412719869474 0.1079110578260965 0.0009493670087383736 -1.002972373906966 0.23875225274764114 0.004616650096258808 -2.219532030773141 0.21749040906798744 0.003820256873729654 -2.0219283689390766 0.10791808143600161 0.00096000280639288 -1.00296927945176 0.24047262019438148 0.0046874945494563705 -2.2355340063416134 0.21577113552436653 0.003764757417785085 -2.005929396446848 0.10790722252154107 0.0009531389540276066 -1.0029768555317367 4.112043522357919 3.0220718594890847 0.4097275489301798 9.839355462606393 -4.416172357950229 10.247938102924957 2.9275942186021884 -4.775313651965646 6.911059810983493 0.9729896877527402 0.8661225844314768 11.143254670950867 30.050636799197914 -19.26817212291224 59.73202819381209 92.56243750654261 1.9716822507901757 0.5145175734310491 28.534899306451635 -10.008007250882258 -11.806564397852942 0.6298186471042088 0.03190154409013725 -5.799604054932368 0.000007851605426192122 -4.795658668705656e-7 0.000007014714673078499 -0.000005219881561007994 0.00001022242284396857 0.000024231932248931946 0.6298153922883714 0.031903041529303615 -5.799604904336009 0.000004548144748283911 -0.00001426066839371834 0.00002133576414175714 -0.0000021292654343827935 0.000008796708725566461 0.000023358729637353377 0.6298186471042088 0.031901577440675476 -5.799604054932368 0.000007849543001870036 -4.795658668705656e-7 0.000007014741542404448 9.048667890988725e-7 0.0000073709937929423595 0.000018319972167013275 0.6298186471042088 0.03190152407981431 -5.799603630230547 -0.000003994125302319407 -9.461497781977701e-7 0.00005169884991991296 0.0000025989410484158792 0.0000035421836469681713 0.000009356425282854038 -11.732682167284667 -15.318983138978112 -13.877182378486772 -8.804439035154592 6.294279386689108 0.5406438443658288 0.010019206152332795 -0.42494515558741214 -1.4121119426445774 8.541023306189953 -7.997199092758273 3.5868621237808904 10.954447114897745 23.778117762807305 7.213852380352433 7.6878536695916875 -12.287264888956146 -10.45219497104958 0.00000919100468476 -0.000032449032973791605 -1.1872704020432015e-7 -8.20179501422518 -7.589866361717636 -6.743831384632293 -9.146061940722612 20.77744247368266 -7.477088181252467 -2.3261095260132185 -10.054241501944137 12.75201898702466 -0.000007653138814068802 -0.000027552083663589023 -0.0000033165179489864637
-0.005417246837168932 -0.30482363831996295 0.05319366976618767 -2.1157014531830804 -1.9643322604458149 0.09833289756363163 -0.3835838949390169 -0.6072946959071908 -1.5282994637089697 -2.901464371191804 0.8779394332814837 -1.0003125155904529 0 0 0 0.08014840846347279 -9.504968550766495 1.8100388019492755 2.9582614487894943 -4.777583180037471 3.2560854978425446 0 0 0 0 0 0 8.384765169480355 0.323492150970457 -11.74959869156 -44.428621600284814 -21.30088024574034 -62.8357139507981 -93.6253787127711 1.984472785080479 -0.5374611574182294 -9.941378567783426 3.4797319173737695 23.827920080692472 0.24047262019438148 0.00468749996891801 -2.2355340063416134 0.21577113552436653 0.003764757417785085 -2.005929396446848 0.10790723586173083 0.0009531390582480224 -1.0029768555317367 4.298543172283549 0.14672536364394947 -1.7721726692864115 -3.8447780231301802 -0.010707010274819838 -2.463412719869474 0.1079110578260965 0.0009493670087383736 -1.002972373906966 0.23875225274764114 0.004616650096258808 -2.219532030773141 0.21749040906798744 0.003820256873729654 -2.0219283689390766 0.10791808143600161 0.00096000280639288 -1.00296927945176 0.24047262019438148 0.0046874945494563705 -2.2355340063416134 0.21577113552436653 0.003764757417785085 -2.005929396446848 0.10790722252154107 0.0009531389540276066 -1.0029768555317367 4.112043522357919 3.0220718594890847 0.4097275489301798 9.839355462606393 -4.416172357950229 10.247938102924957 2.9275942186021884 -4.775313651965646 6.911059810983493 0.7214948487082272 0.8442943366381388 11.076126901332406 23.130578990726995 -21.500485442279235 62.2960854445139 91.47119925766401 1.9583559722207575 0.4912194821851023 30.776687272665708 -14.753125801268412 -8.047963772316525 0.616455373848328 0.03056130602936809 -5.676219608214063 0.000007851605426192122 -4.795658668705656e-7 0.000007014714673078499 -0.000005219881561007994 0.00001022242284396857 0.000024231932248931946 0.6164554272060986 0.030561552823347816 -5.676219608214063 0.000004548144748283911 -0.00001426066839371834 0.00002133576414175714 -0.0000021292654343827935 0.000008796708725566461 0.000023358729637353377 0.6164554272060986 0.030561339379905888 -5.676219608214063 0.000007849543001870036 -4.795658668705656e-7 0.000007014741542404448 9.048667890988725e-7 0.0000073709937929423595 0.000018319972167013275 0.6164554272060986 0.03056128935409919 -5.6762200330077945 -0.000003994125302319407 -9.461497781977701e-7 0.00005169884991991296 0.0000025989410484158792 0.0000035421836469681713 0.000009356425282854038 -11.96951078059402 -15.325519748225744 -13.737527516963423 -8.804439035154592 6.294279386689108 0.5406438443658288 0.010019206152332795 -0.42494515558741214 -1.4121119426445774 8.599332039421569 -7.985656681416312 3.668030083664461 10.997665880972772 23.74882766817365 7.149685687206789 7.180446919207683 -12.26933446268923 -10.319147542397934 0.00000919100468476 -0.000032449032973791605 -1.1872704020432015e-7 -8.299718182275262 -7.452004819516419 -6.749576643924502 -9.172594155150232 20.718175354910507 -7.469094027975904 -2.5248910637041457 -10.01557681800935 12.773893267682341 -0.000007653138814068802 -0.000027552083663589023 -0.0000033165179489864637
